# xmcd
#
# Track frame offsets: 
#        150
#        54765
#        96671
#        146091
#        202959
#        236411
#        263862
#        311735
#
# Disc length: 4480 seconds
#
# Revision: 3
# Processed by: cddbd v1.5.2PL0 Copyright (c) Steve Scherf et al.
# Submitted via: ExactAudioCopy v1.0b6
#
DISCID=6f117e08
DTITLE=Johann Sebastian Bach - Complete Works for Organ (Marie-Claire 
DTITLE=Alain) - Disc 3
DYEAR=1986
DGENRE=Classical
TTITLE0=Fantasia and Fugue in G minor (BWV 542) 
TTITLE1=Prelude and Fugue in A minor (BWV 543)
TTITLE2=Prelude and Fugue in D major (BWV 532)
TTITLE3=Prelude and Fugue in B minor (BWV 544) 
TTITLE4=Prelude and Fugue in G minor (BWV 535)
TTITLE5=Prelude and Fugue in C major (BWV 545)
TTITLE6=Prelude and Fugue in C major (BWV 547)  
TTITLE7=Prelude and Fugue in C minor (BWV 549)
EXTD=
EXTT0=
EXTT1=
EXTT2=
EXTT3=
EXTT4=
EXTT5=
EXTT6=
EXTT7=
PLAYORDER=
